<svg width="29" height="28" fill="none" xmlns="http://www.w3.org/2000/svg"><g clip-path="url(#clip0)"><path d="M.384 24.21l5.473-5.452a1.32 1.32 0 01.933-.383h.895a11.293 11.293 0 01-2.415-7C5.27 5.091 10.38 0 16.687 0c6.307 0 11.417 5.091 11.417 11.375S22.994 22.75 16.687 22.75a11.39 11.39 0 01-7.026-2.406v.891c0 .35-.137.684-.384.93l-5.473 5.452a1.315 1.315 0 01-1.86 0L.39 26.07a1.315 1.315 0 01-.006-1.86zm16.303-5.835c3.88 0 7.026-3.128 7.026-7 0-3.866-3.14-7-7.026-7-3.88 0-7.026 3.128-7.026 7 0 3.866 3.14 7 7.026 7z" fill="#222831"/></g><defs><clipPath id="clip0"><path fill="#fff" transform="matrix(-1 0 0 1 28.104 0)" d="M0 0h28.104v28H0z"/></clipPath></defs></svg>