<svg width="22" height="22" fill="none" xmlns="http://www.w3.org/2000/svg"><g clip-path="url(#clip0)"><path d="M0 2.406V12.72c0 .57.462 1.031 1.031 1.031H4.47a1.03 1.03 0 001.031-1.031V2.406A1.03 1.03 0 004.47 1.375H1.03A1.03 1.03 0 000 2.406zM1.719 11a1.031 1.031 0 112.062 0 1.031 1.031 0 01-2.062 0zm11.687 11c-.867 0-1.267-1.688-1.458-2.483-.223-.931-.455-1.894-1.09-2.531-1.396-1.398-2.128-3.179-3.83-4.86a.514.514 0 01-.153-.367V2.574c0-.281.225-.51.506-.516.68-.012 1.577-.39 2.263-.695C11.008.756 12.706.001 14.78 0h.122c1.838 0 4.012.018 4.889 1.278.36.518.449 1.161.264 1.918.701.732 1.077 2.1.704 3.212.754 1.007.823 2.412.4 3.414l.005.005c.51.514.839 1.343.835 2.114-.007 1.304-1.124 2.496-2.559 2.496h-4.37c.313 1.218 1.429 2.24 1.429 4.063 0 3.156-2.063 3.5-3.094 3.5z" fill="#C4C4C4"/></g><defs><clipPath id="clip0"><path fill="#fff" d="M0 0h22v22H0z"/></clipPath></defs></svg>