<svg width="22" height="22" fill="none" xmlns="http://www.w3.org/2000/svg"><path d="M4.469 9.625H1.03a1.03 1.03 0 00-1.031 1.031V20.97C0 21.539.462 22 1.031 22H4.47a1.03 1.03 0 001.031-1.031V10.656A1.03 1.03 0 004.47 9.625zM2.75 20.281a1.031 1.031 0 110-2.062 1.031 1.031 0 010 2.062zM16.5 3.5c0 1.822-1.116 2.845-1.43 4.063h4.371c1.435 0 2.552 1.192 2.559 2.496.004.77-.324 1.6-.835 2.114l-.005.005c.423 1.002.354 2.407-.4 3.414.373 1.113-.003 2.48-.704 3.213.185.756.096 1.4-.264 1.917-.877 1.26-3.05 1.278-4.889 1.278h-.122c-2.075 0-3.773-.756-5.137-1.363-.686-.305-1.582-.683-2.263-.695a.516.516 0 01-.506-.516v-9.185c0-.138.055-.27.153-.366 1.702-1.682 2.434-3.463 3.83-4.86.635-.638.867-1.6 1.09-2.532C12.14 1.688 12.54 0 13.406 0 14.437 0 16.5.344 16.5 3.5z" fill="#C4C4C4"/></svg>